<svg xmlns="http://www.w3.org/2000/svg" width="40" height="40" viewBox="0 0 40 40">
  <defs>
    <style>
      .cls-1 {
        fill-rule: evenodd;
      }
    </style>
  </defs>
  <path id="Icon-Basket" class="cls-1" d="M282.279,2209.01H250.616a3.44,3.44,0,1,1,0-6.88h3.895a2.569,2.569,0,0,1,.26-0.64l4.13-7.16a2.755,2.755,0,1,1,4.769,2.76l-2.914,5.04h11.383l-2.913-5.04a2.755,2.755,0,1,1,4.769-2.76l4.13,7.16a2.608,2.608,0,0,1,.26.64h3.894A3.44,3.44,0,1,1,282.279,2209.01Zm-0.582,22.03H251.2l-1.192-20.65h32.881Zm-22.133-13.77a1.377,1.377,0,0,0-2.753,0v8.26a1.377,1.377,0,1,0,2.753,0v-8.26Zm8.26,0a1.377,1.377,0,0,0-2.753,0v8.26a1.377,1.377,0,1,0,2.753,0v-8.26Zm8.26,0a1.377,1.377,0,0,0-2.753,0v8.26a1.377,1.377,0,1,0,2.753,0v-8.26Z" transform="translate(-246.453 -2191.985)"/>
</svg>
