<svg xmlns="http://www.w3.org/2000/svg" width="40.375" height="40" viewBox="0 0 40.375 40">
  <defs>
    <style>
      .cls-1 {
        fill-rule: evenodd;
      }
    </style>
  </defs>
  <path id="Icon-Laptop" class="cls-1" d="M283.512,2316.82H251.223c-1.486,0-4.036-1.21-4.036-2.69a2.688,2.688,0,0,1,2.691-2.69h34.979a2.688,2.688,0,0,1,2.691,2.69C287.548,2315.61,285,2316.82,283.512,2316.82Zm-12.108-2.69h-8.072a0.84,0.84,0,1,0,0,1.34H271.4A0.839,0.839,0,1,0,271.4,2314.13Zm-9.282-17.07,2.483,2.5,8-8.04a1.327,1.327,0,0,1,1.894,0l1.894,1.9a1.359,1.359,0,0,1,0,1.91l-10.418,10.46a4.154,4.154,0,0,1-2.908-.16l-4.736-4.76a1.347,1.347,0,0,1,0-1.9l1.894-1.91A1.345,1.345,0,0,1,262.122,2297.06Zm18.7-9.84H253.914v21.53h-4.036v-2.7h0.247a3.981,3.981,0,0,1-.247-1.34v-17.49a4.039,4.039,0,0,1,4.036-4.04h26.907a4.039,4.039,0,0,1,4.036,4.04v17.49a3.981,3.981,0,0,1-.247,1.34h0.247v2.7h-4.036v-21.53Z" transform="translate(-247.188 -2280)"/>
</svg>
