<svg xmlns="http://www.w3.org/2000/svg" width="40" height="40" viewBox="0 0 40 40">
  <defs>
    <style>
      .cls-1 {
        fill-rule: evenodd;
      }
    </style>
  </defs>
  <path id="Icon-Locked" class="cls-1" d="M278.467,2406.1h-21a3.5,3.5,0,0,1-3.5-3.5v-12.83a3.5,3.5,0,0,1,3.5-3.5h1.167v-9.33c0-4.51,4.179-8.17,9.333-8.17s9.333,3.66,9.333,8.17v9.33h1.166a3.5,3.5,0,0,1,3.5,3.5v12.83A3.5,3.5,0,0,1,278.467,2406.1Zm-5.833-29.16c0-1.93-2.089-3.5-4.666-3.5s-4.667,1.57-4.667,3.5v8.17a2.664,2.664,0,0,0,.286,1.16h8.762a2.677,2.677,0,0,0,.285-1.16v-8.17Zm-4.666,12.83a4.655,4.655,0,0,0-2.333,8.69v1.81a2.333,2.333,0,0,0,4.666,0v-1.81A4.655,4.655,0,0,0,267.968,2389.77Z" transform="translate(-247.969 -2367.435)"/>
</svg>
